<svg xmlns="http://www.w3.org/2000/svg" xmlns:xlink="http://www.w3.org/1999/xlink" width="500" zoomAndPan="magnify" viewBox="0 0 375 374.999991" height="500" preserveAspectRatio="xMidYMid meet" version="1.0"><defs><g/><clipPath id="9128187366"><path d="M 35 36 L 323 36 L 323 339 L 35 339 Z M 35 36 " clip-rule="nonzero"/></clipPath><clipPath id="a9717b72bc"><path d="M 0 249.355469 L 206.515625 -0.0703125 L 358.292969 125.597656 L 151.777344 375.019531 Z M 0 249.355469 " clip-rule="nonzero"/></clipPath><clipPath id="1f324b5784"><path d="M 0.00390625 249.355469 L 206.457031 0.00390625 L 358.40625 125.8125 L 151.953125 375.164062 Z M 0.00390625 249.355469 " clip-rule="nonzero"/></clipPath><clipPath id="ae406b0b40"><path d="M 154.84375 62.339844 C 183.347656 27.914062 240.425781 28.128906 282.328125 62.820312 C 324.230469 97.515625 335.089844 153.546875 306.585938 187.976562 L 203.359375 312.652344 C 174.851562 347.082031 117.777344 346.867188 75.875 312.171875 C 33.972656 277.480469 23.113281 221.445312 51.617188 187.015625 Z M 154.84375 62.339844 " clip-rule="nonzero"/></clipPath></defs><g clip-path="url(#9128187366)"><g clip-path="url(#a9717b72bc)"><g clip-path="url(#1f324b5784)"><g clip-path="url(#ae406b0b40)"><path stroke-linecap="butt" transform="matrix(0.462003, -0.557999, 0.557999, 0.462003, 0.00318621, 249.354711)" fill="none" stroke-linejoin="miter" d="M 335.15191 -0.000941896 C 396.847517 -0.000280328 446.866373 60.87667 446.86871 135.968676 C 446.866893 211.064121 396.851932 271.935954 335.152172 271.938731 L 111.718835 271.939168 C 50.015636 271.937792 0.00021844 211.064995 0.0020355 135.96955 C -0.000300726 60.877544 50.018813 0.00227217 111.718573 -0.000505027 Z M 335.15191 -0.000941896 " stroke="#567d41" stroke-width="8.28229" stroke-opacity="1" stroke-miterlimit="4"/></g></g></g></g><g fill="#344334" fill-opacity="1"><g transform="translate(98.103675, 230.716)"><g><path d="M 19.140625 -12.4375 L 24.25 -12.4375 L 24.25 -2.65625 C 22.9375 -1.664062 21.414062 -0.90625 19.6875 -0.375 C 17.96875 0.144531 16.238281 0.40625 14.5 0.40625 C 12 0.40625 9.75 -0.125 7.75 -1.1875 C 5.75 -2.257812 4.179688 -3.738281 3.046875 -5.625 C 1.910156 -7.519531 1.34375 -9.660156 1.34375 -12.046875 C 1.34375 -14.441406 1.910156 -16.582031 3.046875 -18.46875 C 4.179688 -20.363281 5.757812 -21.84375 7.78125 -22.90625 C 9.800781 -23.976562 12.070312 -24.515625 14.59375 -24.515625 C 16.707031 -24.515625 18.625 -24.160156 20.34375 -23.453125 C 22.070312 -22.742188 23.519531 -21.710938 24.6875 -20.359375 L 21.109375 -17.046875 C 19.390625 -18.859375 17.3125 -19.765625 14.875 -19.765625 C 13.332031 -19.765625 11.960938 -19.441406 10.765625 -18.796875 C 9.578125 -18.160156 8.648438 -17.253906 7.984375 -16.078125 C 7.316406 -14.910156 6.984375 -13.566406 6.984375 -12.046875 C 6.984375 -10.554688 7.316406 -9.222656 7.984375 -8.046875 C 8.648438 -6.878906 9.570312 -5.96875 10.75 -5.3125 C 11.9375 -4.664062 13.289062 -4.34375 14.8125 -4.34375 C 16.414062 -4.34375 17.859375 -4.6875 19.140625 -5.375 Z M 19.140625 -12.4375 "/></g></g></g><g fill="#344334" fill-opacity="1"><g transform="translate(126.893706, 230.716)"><g><path d="M 2.484375 -18.53125 L 7.859375 -18.53125 L 7.859375 0 L 2.484375 0 Z M 5.171875 -21.109375 C 4.179688 -21.109375 3.375 -21.394531 2.75 -21.96875 C 2.132812 -22.539062 1.828125 -23.253906 1.828125 -24.109375 C 1.828125 -24.953125 2.132812 -25.660156 2.75 -26.234375 C 3.375 -26.816406 4.179688 -27.109375 5.171875 -27.109375 C 6.160156 -27.109375 6.960938 -26.832031 7.578125 -26.28125 C 8.203125 -25.726562 8.515625 -25.035156 8.515625 -24.203125 C 8.515625 -23.304688 8.203125 -22.566406 7.578125 -21.984375 C 6.960938 -21.398438 6.160156 -21.109375 5.171875 -21.109375 Z M 5.171875 -21.109375 "/></g></g></g><g fill="#344334" fill-opacity="1"><g transform="translate(139.49811, 230.716)"><g><path d="M 20.875 -18.53125 L 13.046875 0 L 7.5 0 L -0.28125 -18.53125 L 5.265625 -18.53125 L 10.40625 -5.921875 L 15.703125 -18.53125 Z M 20.875 -18.53125 "/></g></g></g><g fill="#344334" fill-opacity="1"><g transform="translate(162.33046, 230.716)"><g><path d="M 20.625 -9.1875 C 20.625 -9.125 20.59375 -8.644531 20.53125 -7.75 L 6.515625 -7.75 C 6.765625 -6.601562 7.359375 -5.695312 8.296875 -5.03125 C 9.242188 -4.363281 10.414062 -4.03125 11.8125 -4.03125 C 12.78125 -4.03125 13.632812 -4.171875 14.375 -4.453125 C 15.125 -4.742188 15.820312 -5.195312 16.46875 -5.8125 L 19.3125 -2.71875 C 17.570312 -0.71875 15.023438 0.28125 11.671875 0.28125 C 9.585938 0.28125 7.738281 -0.125 6.125 -0.9375 C 4.519531 -1.757812 3.28125 -2.894531 2.40625 -4.34375 C 1.539062 -5.789062 1.109375 -7.429688 1.109375 -9.265625 C 1.109375 -11.078125 1.535156 -12.710938 2.390625 -14.171875 C 3.253906 -15.628906 4.4375 -16.765625 5.9375 -17.578125 C 7.445312 -18.390625 9.128906 -18.796875 10.984375 -18.796875 C 12.796875 -18.796875 14.4375 -18.40625 15.90625 -17.625 C 17.375 -16.851562 18.523438 -15.738281 19.359375 -14.28125 C 20.203125 -12.820312 20.625 -11.125 20.625 -9.1875 Z M 11.015625 -14.734375 C 9.796875 -14.734375 8.773438 -14.390625 7.953125 -13.703125 C 7.128906 -13.015625 6.625 -12.070312 6.4375 -10.875 L 15.5625 -10.875 C 15.382812 -12.050781 14.878906 -12.988281 14.046875 -13.6875 C 13.222656 -14.382812 12.210938 -14.734375 11.015625 -14.734375 Z M 11.015625 -14.734375 "/></g></g></g><g fill="#344334" fill-opacity="1"><g transform="translate(98.103675, 268.21313)"><g><path d="M 24.96875 -24.109375 L 24.96875 0 L 19.390625 0 L 19.390625 -9.890625 L 8.4375 -9.890625 L 8.4375 0 L 2.859375 0 L 2.859375 -24.109375 L 8.4375 -24.109375 L 8.4375 -14.59375 L 19.390625 -14.59375 L 19.390625 -24.109375 Z M 24.96875 -24.109375 "/></g></g></g><g fill="#344334" fill-opacity="1"><g transform="translate(128.167895, 268.21313)"><g><path d="M 9.953125 -18.796875 C 12.816406 -18.796875 15.019531 -18.113281 16.5625 -16.75 C 18.101562 -15.382812 18.875 -13.328125 18.875 -10.578125 L 18.875 0 L 13.84375 0 L 13.84375 -2.3125 C 12.832031 -0.582031 10.953125 0.28125 8.203125 0.28125 C 6.773438 0.28125 5.535156 0.0390625 4.484375 -0.4375 C 3.441406 -0.925781 2.644531 -1.59375 2.09375 -2.4375 C 1.550781 -3.289062 1.28125 -4.257812 1.28125 -5.34375 C 1.28125 -7.0625 1.925781 -8.410156 3.21875 -9.390625 C 4.519531 -10.378906 6.523438 -10.875 9.234375 -10.875 L 13.5 -10.875 C 13.5 -12.050781 13.140625 -12.953125 12.421875 -13.578125 C 11.710938 -14.210938 10.648438 -14.53125 9.234375 -14.53125 C 8.242188 -14.53125 7.269531 -14.375 6.3125 -14.0625 C 5.363281 -13.757812 4.554688 -13.34375 3.890625 -12.8125 L 1.96875 -16.5625 C 2.976562 -17.269531 4.1875 -17.816406 5.59375 -18.203125 C 7.007812 -18.597656 8.460938 -18.796875 9.953125 -18.796875 Z M 9.546875 -3.34375 C 10.460938 -3.34375 11.273438 -3.550781 11.984375 -3.96875 C 12.691406 -4.394531 13.195312 -5.023438 13.5 -5.859375 L 13.5 -7.75 L 9.8125 -7.75 C 7.613281 -7.75 6.515625 -7.023438 6.515625 -5.578125 C 6.515625 -4.890625 6.78125 -4.34375 7.3125 -3.9375 C 7.851562 -3.539062 8.597656 -3.34375 9.546875 -3.34375 Z M 9.546875 -3.34375 "/></g></g></g><g fill="#344334" fill-opacity="1"><g transform="translate(151.654556, 268.21313)"><g><path d="M 13.734375 -18.796875 C 16.035156 -18.796875 17.890625 -18.109375 19.296875 -16.734375 C 20.710938 -15.359375 21.421875 -13.316406 21.421875 -10.609375 L 21.421875 0 L 16.046875 0 L 16.046875 -9.78125 C 16.046875 -11.25 15.722656 -12.34375 15.078125 -13.0625 C 14.441406 -13.789062 13.515625 -14.15625 12.296875 -14.15625 C 10.941406 -14.15625 9.863281 -13.734375 9.0625 -12.890625 C 8.257812 -12.054688 7.859375 -10.8125 7.859375 -9.15625 L 7.859375 0 L 2.484375 0 L 2.484375 -18.53125 L 7.609375 -18.53125 L 7.609375 -16.359375 C 8.316406 -17.140625 9.195312 -17.738281 10.25 -18.15625 C 11.3125 -18.582031 12.472656 -18.796875 13.734375 -18.796875 Z M 13.734375 -18.796875 "/></g></g></g><g fill="#344334" fill-opacity="1"><g transform="translate(177.689595, 268.21313)"><g><path d="M 21.34375 -25.546875 L 21.34375 0 L 16.21875 0 L 16.21875 -2.140625 C 14.882812 -0.523438 12.957031 0.28125 10.4375 0.28125 C 8.6875 0.28125 7.101562 -0.109375 5.6875 -0.890625 C 4.28125 -1.671875 3.175781 -2.785156 2.375 -4.234375 C 1.570312 -5.679688 1.171875 -7.359375 1.171875 -9.265625 C 1.171875 -11.171875 1.570312 -12.847656 2.375 -14.296875 C 3.175781 -15.742188 4.28125 -16.851562 5.6875 -17.625 C 7.101562 -18.40625 8.6875 -18.796875 10.4375 -18.796875 C 12.800781 -18.796875 14.648438 -18.050781 15.984375 -16.5625 L 15.984375 -25.546875 Z M 11.359375 -4.125 C 12.710938 -4.125 13.835938 -4.585938 14.734375 -5.515625 C 15.628906 -6.453125 16.078125 -7.703125 16.078125 -9.265625 C 16.078125 -10.828125 15.628906 -12.070312 14.734375 -13 C 13.835938 -13.925781 12.710938 -14.390625 11.359375 -14.390625 C 9.984375 -14.390625 8.847656 -13.925781 7.953125 -13 C 7.054688 -12.070312 6.609375 -10.828125 6.609375 -9.265625 C 6.609375 -7.703125 7.054688 -6.453125 7.953125 -5.515625 C 8.847656 -4.585938 9.984375 -4.125 11.359375 -4.125 Z M 11.359375 -4.125 "/></g></g></g></svg>