<svg xmlns="http://www.w3.org/2000/svg" xmlns:xlink="http://www.w3.org/1999/xlink" width="1366" zoomAndPan="magnify" viewBox="0 0 1024.5 576" height="768" preserveAspectRatio="xMidYMid meet" version="1.0"><defs><clipPath id="6ea9371474"><path d="M 0 0.140625 L 1024 0.140625 L 1024 575.859375 L 0 575.859375 Z M 0 0.140625 " clip-rule="nonzero"/></clipPath><clipPath id="d2d57de8a2"><path d="M 669.753906 0.140625 L 1024 0.140625 L 1024 300.757812 L 669.753906 300.757812 Z M 669.753906 0.140625 " clip-rule="nonzero"/></clipPath><clipPath id="bfdc528060"><path d="M 890.636719 -141.011719 C 768.644531 -141.011719 669.753906 -42.117188 669.753906 79.871094 C 669.753906 201.863281 768.644531 300.757812 890.636719 300.757812 C 1012.628906 300.757812 1111.519531 201.863281 1111.519531 79.871094 C 1111.519531 -42.117188 1012.628906 -141.011719 890.636719 -141.011719 Z M 890.636719 -141.011719 " clip-rule="nonzero"/></clipPath><clipPath id="a74a942ddd"><path d="M 0 261.066406 L 317.992188 261.066406 L 317.992188 575.859375 L 0 575.859375 Z M 0 261.066406 " clip-rule="nonzero"/></clipPath><clipPath id="755df3783e"><path d="M 97.109375 261.066406 C -24.882812 261.066406 -123.777344 359.960938 -123.777344 481.953125 C -123.777344 603.941406 -24.882812 702.835938 97.109375 702.835938 C 219.097656 702.835938 317.992188 603.941406 317.992188 481.953125 C 317.992188 359.960938 219.097656 261.066406 97.109375 261.066406 Z M 97.109375 261.066406 " clip-rule="nonzero"/></clipPath><clipPath id="8e7decac4b"><path d="M 86.941406 145.214844 L 156.613281 145.214844 L 156.613281 214.886719 L 86.941406 214.886719 Z M 86.941406 145.214844 " clip-rule="nonzero"/></clipPath><clipPath id="94f791040c"><path d="M 121.777344 145.214844 C 102.539062 145.214844 86.941406 160.8125 86.941406 180.050781 C 86.941406 199.289062 102.539062 214.886719 121.777344 214.886719 C 141.019531 214.886719 156.613281 199.289062 156.613281 180.050781 C 156.613281 160.8125 141.019531 145.214844 121.777344 145.214844 Z M 121.777344 145.214844 " clip-rule="nonzero"/></clipPath><clipPath id="39355c9a3d"><path d="M 192.980469 74.804688 L 232.398438 74.804688 L 232.398438 114.21875 L 192.980469 114.21875 Z M 192.980469 74.804688 " clip-rule="nonzero"/></clipPath><clipPath id="08cf3396d8"><path d="M 212.6875 74.804688 C 201.804688 74.804688 192.980469 83.628906 192.980469 94.511719 C 192.980469 105.394531 201.804688 114.21875 212.6875 114.21875 C 223.574219 114.21875 232.398438 105.394531 232.398438 94.511719 C 232.398438 83.628906 223.574219 74.804688 212.6875 74.804688 Z M 212.6875 74.804688 " clip-rule="nonzero"/></clipPath><clipPath id="37978e9a0d"><path d="M 761.34375 483.449219 L 831.019531 483.449219 L 831.019531 553.125 L 761.34375 553.125 Z M 761.34375 483.449219 " clip-rule="nonzero"/></clipPath><clipPath id="87392e169f"><path d="M 796.183594 483.449219 C 776.941406 483.449219 761.34375 499.046875 761.34375 518.289062 C 761.34375 537.527344 776.941406 553.125 796.183594 553.125 C 815.421875 553.125 831.019531 537.527344 831.019531 518.289062 C 831.019531 499.046875 815.421875 483.449219 796.183594 483.449219 Z M 796.183594 483.449219 " clip-rule="nonzero"/></clipPath><clipPath id="3659e1bb32"><path d="M 898.734375 401.679688 L 945.101562 401.679688 L 945.101562 448.046875 L 898.734375 448.046875 Z M 898.734375 401.679688 " clip-rule="nonzero"/></clipPath><clipPath id="72a3bcbc89"><path d="M 921.917969 401.679688 C 909.113281 401.679688 898.734375 412.0625 898.734375 424.863281 C 898.734375 437.667969 909.113281 448.046875 921.917969 448.046875 C 934.722656 448.046875 945.101562 437.667969 945.101562 424.863281 C 945.101562 412.0625 934.722656 401.679688 921.917969 401.679688 Z M 921.917969 401.679688 " clip-rule="nonzero"/></clipPath><clipPath id="41a26e979a"><path d="M 34.671875 46.589844 L 67.957031 46.589844 L 67.957031 79.871094 L 34.671875 79.871094 Z M 34.671875 46.589844 " clip-rule="nonzero"/></clipPath><clipPath id="c212c58377"><path d="M 51.316406 46.589844 C 42.125 46.589844 34.671875 54.039062 34.671875 63.230469 C 34.671875 72.421875 42.125 79.871094 51.316406 79.871094 C 60.503906 79.871094 67.957031 72.421875 67.957031 63.230469 C 67.957031 54.039062 60.503906 46.589844 51.316406 46.589844 Z M 51.316406 46.589844 " clip-rule="nonzero"/></clipPath><clipPath id="1fb3581937"><path d="M 933.554688 501.851562 L 966.429688 501.851562 L 966.429688 534.722656 L 933.554688 534.722656 Z M 933.554688 501.851562 " clip-rule="nonzero"/></clipPath><clipPath id="36a3b66f8d"><path d="M 949.992188 501.851562 C 940.914062 501.851562 933.554688 509.210938 933.554688 518.289062 C 933.554688 527.367188 940.914062 534.722656 949.992188 534.722656 C 959.070312 534.722656 966.429688 527.367188 966.429688 518.289062 C 966.429688 509.210938 959.070312 501.851562 949.992188 501.851562 Z M 949.992188 501.851562 " clip-rule="nonzero"/></clipPath></defs><g clip-path="url(#6ea9371474)"><path fill="#ffffff" d="M 0 0.140625 L 1024 0.140625 L 1024 575.859375 L 0 575.859375 Z M 0 0.140625 " fill-opacity="1" fill-rule="nonzero"/><path fill="#00765a" d="M 0 0.140625 L 1024 0.140625 L 1024 575.859375 L 0 575.859375 Z M 0 0.140625 " fill-opacity="1" fill-rule="nonzero"/></g><g clip-path="url(#d2d57de8a2)"><g clip-path="url(#bfdc528060)"><path fill="#fbc02d" d="M 669.753906 -141.011719 L 1111.519531 -141.011719 L 1111.519531 300.757812 L 669.753906 300.757812 Z M 669.753906 -141.011719 " fill-opacity="1" fill-rule="nonzero"/></g></g><g clip-path="url(#a74a942ddd)"><g clip-path="url(#755df3783e)"><path fill="#ff7043" d="M -123.777344 261.066406 L 317.992188 261.066406 L 317.992188 702.835938 L -123.777344 702.835938 Z M -123.777344 261.066406 " fill-opacity="1" fill-rule="nonzero"/></g></g><g clip-path="url(#8e7decac4b)"><g clip-path="url(#94f791040c)"><path fill="#4fc3f7" d="M 86.941406 145.214844 L 156.613281 145.214844 L 156.613281 214.886719 L 86.941406 214.886719 Z M 86.941406 145.214844 " fill-opacity="1" fill-rule="nonzero"/></g></g><g clip-path="url(#39355c9a3d)"><g clip-path="url(#08cf3396d8)"><path fill="#c6ff00" d="M 192.980469 74.804688 L 232.398438 74.804688 L 232.398438 114.21875 L 192.980469 114.21875 Z M 192.980469 74.804688 " fill-opacity="1" fill-rule="nonzero"/></g></g><g clip-path="url(#37978e9a0d)"><g clip-path="url(#87392e169f)"><path fill="#ffffff" d="M 761.34375 483.449219 L 831.019531 483.449219 L 831.019531 553.125 L 761.34375 553.125 Z M 761.34375 483.449219 " fill-opacity="1" fill-rule="nonzero"/></g></g><g clip-path="url(#3659e1bb32)"><g clip-path="url(#72a3bcbc89)"><path fill="#c6ff00" d="M 898.734375 401.679688 L 945.101562 401.679688 L 945.101562 448.046875 L 898.734375 448.046875 Z M 898.734375 401.679688 " fill-opacity="1" fill-rule="nonzero"/></g></g><g clip-path="url(#41a26e979a)"><g clip-path="url(#c212c58377)"><path fill="#ffffff" d="M 34.671875 46.589844 L 67.957031 46.589844 L 67.957031 79.871094 L 34.671875 79.871094 Z M 34.671875 46.589844 " fill-opacity="1" fill-rule="nonzero"/></g></g><g clip-path="url(#1fb3581937)"><g clip-path="url(#36a3b66f8d)"><path fill="#4fc3f7" d="M 933.554688 501.851562 L 966.429688 501.851562 L 966.429688 534.722656 L 933.554688 534.722656 Z M 933.554688 501.851562 " fill-opacity="1" fill-rule="nonzero"/></g></g></svg>